<mxfile host="app.diagrams.net" modified="2024-02-29T12:15:57.352Z" agent="Mozilla/5.0 (Macintosh; Intel Mac OS X 10_15_7) AppleWebKit/537.36 (KHTML, like Gecko) Chrome/121.0.0.0 Safari/537.36" version="23.1.7" etag="PGvrxVhiLGQrttbTivAP" type="github">
  <diagram name="第 1 页" id="8flzCKs2ITmLrf17s9QG">
    <mxGraphModel>
      <root>
        <mxCell id="0" />
        <mxCell id="1" parent="0" />
      </root>
    </mxGraphModel>
  </diagram>
</mxfile>
